<?xml version="1.0" encoding="UTF-8" standalone="no"?>
<svg
   xmlns:dc="http://purl.org/dc/elements/1.1/"
   xmlns:cc="http://creativecommons.org/ns#"
   xmlns:rdf="http://www.w3.org/1999/02/22-rdf-syntax-ns#"
   xmlns:svg="http://www.w3.org/2000/svg"
   xmlns="http://www.w3.org/2000/svg"
   xmlns:sodipodi="http://sodipodi.sourceforge.net/DTD/sodipodi-0.dtd"
   xmlns:inkscape="http://www.inkscape.org/namespaces/inkscape"
   inkscape:version="1.0 (4035a4fb49, 2020-05-01)"
   sodipodi:docname="scissors.svg"
   id="svg12"
   version="1.1"
   style="display: block;"
   viewBox="0 0 24 24"
   height="24"
   width="24">
  <metadata
     id="metadata18">
    <rdf:RDF>
      <cc:Work
         rdf:about="">
        <dc:format>image/svg+xml</dc:format>
        <dc:type
           rdf:resource="http://purl.org/dc/dcmitype/StillImage" />
      </cc:Work>
    </rdf:RDF>
  </metadata>
  <defs
     id="defs16" />
  <sodipodi:namedview
     inkscape:current-layer="svg12"
     inkscape:window-maximized="0"
     inkscape:window-y="0"
     inkscape:window-x="0"
     inkscape:cy="12"
     inkscape:cx="12"
     inkscape:zoom="35.416667"
     showgrid="false"
     id="namedview14"
     inkscape:window-height="856"
     inkscape:window-width="1495"
     inkscape:pageshadow="2"
     inkscape:pageopacity="0"
     guidetolerance="10"
     gridtolerance="10"
     objecttolerance="10"
     borderopacity="1"
     bordercolor="#666666"
     pagecolor="#ffffff" />
  <path
     style="fill:none"
     id="path2"
     stroke-linejoin="round"
     stroke-linecap="round"
     stroke-width="2"
     stroke="#3F8AE0"
     d="M6 9C7.65685 9 9 7.65685 9 6C9 4.34315 7.65685 3 6 3C4.34315 3 3 4.34315 3 6C3 7.65685 4.34315 9 6 9Z" />
  <path
     style="fill:none"
     id="path4"
     stroke-linejoin="round"
     stroke-linecap="round"
     stroke-width="2"
     stroke="#3F8AE0"
     d="M6 21C7.65685 21 9 19.6569 9 18C9 16.3431 7.65685 15 6 15C4.34315 15 3 16.3431 3 18C3 19.6569 4.34315 21 6 21Z" />
  <path
     id="path6"
     stroke-linejoin="round"
     stroke-linecap="round"
     stroke-width="2"
     stroke="#3F8AE0"
     d="M20 4L8.12 15.88" />
  <path
     id="path8"
     stroke-linejoin="round"
     stroke-linecap="round"
     stroke-width="2"
     stroke="#3F8AE0"
     d="M14.47 14.48L20 20" />
  <path
     id="path10"
     stroke-linejoin="round"
     stroke-linecap="round"
     stroke-width="2"
     stroke="#3F8AE0"
     d="M8.12 8.12L12 12" />
</svg>
